<svg id="visual" viewBox="0 0 900 600" width="900" height="600" xmlns="http://www.w3.org/2000/svg" xmlns:xlink="http://www.w3.org/1999/xlink" version="1.1"><rect x="0" y="0" width="900" height="600" fill="#1d1d25"></rect><g transform="translate(497.8997532005304 287.56040319416735)"><path d="M129.7 -211.1C168.4 -202.3 200.2 -168.1 202.1 -128.7C204.1 -89.3 176 -44.7 157.6 -10.6C139.3 23.4 130.5 46.9 127.6 84.6C124.7 122.2 127.6 174.1 107.3 208.7C87 243.4 43.5 260.7 -4.8 269C-53.2 277.4 -106.3 276.8 -128.7 243.4C-151.1 210 -142.7 143.8 -178.6 97.7C-214.5 51.7 -294.7 25.8 -297.9 -1.8C-301.1 -29.5 -227.2 -59 -193.4 -108.7C-159.5 -158.3 -165.8 -228.1 -140.2 -244.5C-114.7 -260.9 -57.3 -224 -5.9 -213.7C45.5 -203.5 91 -219.9 129.7 -211.1" fill="#2a2a3d"></path></g></svg>