<svg id="visual" viewBox="0 0 900 675" width="900" height="675" xmlns="http://www.w3.org/2000/svg" xmlns:xlink="http://www.w3.org/1999/xlink" version="1.1"><rect x="0" y="0" width="900" height="675" fill="#0e1117"></rect><path d="M0 431L75 429L150 444L225 394L300 384L375 414L450 376L525 379L600 404L675 425L750 379L825 404L900 450L900 676L825 676L750 676L675 676L600 676L525 676L450 676L375 676L300 676L225 676L150 676L75 676L0 676Z" fill="#2b2d42"></path><path d="M0 413L75 406L150 471L225 425L300 405L375 414L450 471L525 476L600 434L675 426L750 430L825 444L900 427L900 676L825 676L750 676L675 676L600 676L525 676L450 676L375 676L300 676L225 676L150 676L75 676L0 676Z" fill="#282b3e"></path><path d="M0 499L75 492L150 457L225 499L300 464L375 453L450 440L525 442L600 497L675 495L750 469L825 456L900 439L900 676L825 676L750 676L675 676L600 676L525 676L450 676L375 676L300 676L225 676L150 676L75 676L0 676Z" fill="#252939"></path><path d="M0 484L75 508L150 531L225 496L300 530L375 502L450 500L525 500L600 500L675 487L750 476L825 507L900 523L900 676L825 676L750 676L675 676L600 676L525 676L450 676L375 676L300 676L225 676L150 676L75 676L0 676Z" fill="#222734"></path><path d="M0 521L75 523L150 513L225 537L300 519L375 515L450 520L525 529L600 521L675 512L750 519L825 555L900 527L900 676L825 676L750 676L675 676L600 676L525 676L450 676L375 676L300 676L225 676L150 676L75 676L0 676Z" fill="#202530"></path><path d="M0 552L75 550L150 547L225 583L300 563L375 547L450 552L525 574L600 573L675 547L750 546L825 569L900 566L900 676L825 676L750 676L675 676L600 676L525 676L450 676L375 676L300 676L225 676L150 676L75 676L0 676Z" fill="#1e232b"></path><path d="M0 613L75 612L150 589L225 592L300 590L375 586L450 600L525 613L600 609L675 583L750 583L825 589L900 615L900 676L825 676L750 676L675 676L600 676L525 676L450 676L375 676L300 676L225 676L150 676L75 676L0 676Z" fill="#1d2026"></path><path d="M0 628L75 622L150 638L225 631L300 633L375 629L450 623L525 642L600 637L675 625L750 639L825 636L900 631L900 676L825 676L750 676L675 676L600 676L525 676L450 676L375 676L300 676L225 676L150 676L75 676L0 676Z" fill="#1c1e21"></path></svg>