<svg id="visual" viewBox="0 0 900 675" width="900" height="675" xmlns="http://www.w3.org/2000/svg" xmlns:xlink="http://www.w3.org/1999/xlink" version="1.1"><g stroke-width="1" stroke-linejoin="bevel"><path d="M313 313.5L344 193.8L123 222.8Z" fill="#0e1117" stroke="#0e1117"></path><path d="M123 222.8L141 292.5L313 313.5Z" fill="#242739" stroke="#242739"></path><path d="M344 193.8L210 0L123 222.8Z" fill="#1e2230" stroke="#1e2230"></path><path d="M0 288.5L178 465.3L141 292.5Z" fill="#1e2230" stroke="#1e2230"></path><path d="M141 292.5L178 465.3L313 313.5Z" fill="#0e1117" stroke="#0e1117"></path><path d="M0 149.8L0 288.5L123 222.8Z" fill="#14171f" stroke="#14171f"></path><path d="M123 222.8L0 288.5L141 292.5Z" fill="#242739" stroke="#242739"></path><path d="M210 0L0 149.8L123 222.8Z" fill="#11141b" stroke="#11141b"></path><path d="M344 193.8L358 0L210 0Z" fill="#1e2230" stroke="#1e2230"></path><path d="M313 313.5L498 174.8L344 193.8Z" fill="#14171f" stroke="#14171f"></path><path d="M344 193.8L498 174.8L358 0Z" fill="#0e1117" stroke="#0e1117"></path><path d="M596 355.5L498 174.8L313 313.5Z" fill="#14171f" stroke="#14171f"></path><path d="M178 465.3L381 495.3L313 313.5Z" fill="#2b2d42" stroke="#2b2d42"></path><path d="M210 0L0 0L0 149.8Z" fill="#282a3e" stroke="#282a3e"></path><path d="M0 288.5L0 521.3L178 465.3Z" fill="#0e1117" stroke="#0e1117"></path><path d="M366 675L489 558.3L381 495.3Z" fill="#14171f" stroke="#14171f"></path><path d="M381 495.3L596 355.5L313 313.5Z" fill="#181c28" stroke="#181c28"></path><path d="M768 148.8L564 0L498 174.8Z" fill="#212535" stroke="#212535"></path><path d="M498 174.8L564 0L358 0Z" fill="#1b1f2c" stroke="#1b1f2c"></path><path d="M381 495.3L489 558.3L596 355.5Z" fill="#181c28" stroke="#181c28"></path><path d="M201 675L381 495.3L178 465.3Z" fill="#181c28" stroke="#181c28"></path><path d="M0 521.3L201 675L178 465.3Z" fill="#181c28" stroke="#181c28"></path><path d="M201 675L366 675L381 495.3Z" fill="#1e2230" stroke="#1e2230"></path><path d="M0 521.3L0 675L201 675Z" fill="#212535" stroke="#212535"></path><path d="M366 675L517 675L489 558.3Z" fill="#1e2230" stroke="#1e2230"></path><path d="M489 558.3L693 531.3L596 355.5Z" fill="#0e1117" stroke="#0e1117"></path><path d="M596 355.5L768 148.8L498 174.8Z" fill="#11141b" stroke="#11141b"></path><path d="M770 389.5L768 148.8L596 355.5Z" fill="#181c28" stroke="#181c28"></path><path d="M517 675L693 531.3L489 558.3Z" fill="#1e2230" stroke="#1e2230"></path><path d="M693 531.3L770 389.5L596 355.5Z" fill="#282a3e" stroke="#282a3e"></path><path d="M768 148.8L749 0L564 0Z" fill="#14171f" stroke="#14171f"></path><path d="M517 675L704 675L693 531.3Z" fill="#0e1117" stroke="#0e1117"></path><path d="M900 493.3L900 384.5L770 389.5Z" fill="#1b1f2c" stroke="#1b1f2c"></path><path d="M900 384.5L900 140.8L768 148.8Z" fill="#2b2d42" stroke="#2b2d42"></path><path d="M768 148.8L900 0L749 0Z" fill="#1e2230" stroke="#1e2230"></path><path d="M900 384.5L768 148.8L770 389.5Z" fill="#1e2230" stroke="#1e2230"></path><path d="M900 493.3L770 389.5L693 531.3Z" fill="#2b2d42" stroke="#2b2d42"></path><path d="M900 140.8L900 0L768 148.8Z" fill="#11141b" stroke="#11141b"></path><path d="M900 675L900 493.3L693 531.3Z" fill="#1b1f2c" stroke="#1b1f2c"></path><path d="M704 675L900 675L693 531.3Z" fill="#2b2d42" stroke="#2b2d42"></path></g></svg>