<svg id="visual" viewBox="0 0 900 600" width="900" height="600" xmlns="http://www.w3.org/2000/svg" xmlns:xlink="http://www.w3.org/1999/xlink" version="1.1"><rect x="0" y="0" width="900" height="600" fill="#1c1e21"></rect><path d="M0 379L16.7 386.2C33.3 393.3 66.7 407.7 100 411C133.3 414.3 166.7 406.7 200 406C233.3 405.3 266.7 411.7 300 404.8C333.3 398 366.7 378 400 373.8C433.3 369.7 466.7 381.3 500 380.8C533.3 380.3 566.7 367.7 600 371.7C633.3 375.7 666.7 396.3 700 400.3C733.3 404.3 766.7 391.7 800 380.5C833.3 369.3 866.7 359.7 883.3 354.8L900 350L900 601L883.3 601C866.7 601 833.3 601 800 601C766.7 601 733.3 601 700 601C666.7 601 633.3 601 600 601C566.7 601 533.3 601 500 601C466.7 601 433.3 601 400 601C366.7 601 333.3 601 300 601C266.7 601 233.3 601 200 601C166.7 601 133.3 601 100 601C66.7 601 33.3 601 16.7 601L0 601Z" fill="#2b2d42"></path><path d="M0 398L16.7 396C33.3 394 66.7 390 100 388.8C133.3 387.7 166.7 389.3 200 401.7C233.3 414 266.7 437 300 437.8C333.3 438.7 366.7 417.3 400 415.5C433.3 413.7 466.7 431.3 500 431.8C533.3 432.3 566.7 415.7 600 414.7C633.3 413.7 666.7 428.3 700 426.2C733.3 424 766.7 405 800 405C833.3 405 866.7 424 883.3 433.5L900 443L900 601L883.3 601C866.7 601 833.3 601 800 601C766.7 601 733.3 601 700 601C666.7 601 633.3 601 600 601C566.7 601 533.3 601 500 601C466.7 601 433.3 601 400 601C366.7 601 333.3 601 300 601C266.7 601 233.3 601 200 601C166.7 601 133.3 601 100 601C66.7 601 33.3 601 16.7 601L0 601Z" fill="#242739"></path><path d="M0 472L16.7 465.2C33.3 458.3 66.7 444.7 100 447.7C133.3 450.7 166.7 470.3 200 470.7C233.3 471 266.7 452 300 446.7C333.3 441.3 366.7 449.7 400 458C433.3 466.3 466.7 474.7 500 476.3C533.3 478 566.7 473 600 472C633.3 471 666.7 474 700 467C733.3 460 766.7 443 800 436.8C833.3 430.7 866.7 435.3 883.3 437.7L900 440L900 601L883.3 601C866.7 601 833.3 601 800 601C766.7 601 733.3 601 700 601C666.7 601 633.3 601 600 601C566.7 601 533.3 601 500 601C466.7 601 433.3 601 400 601C366.7 601 333.3 601 300 601C266.7 601 233.3 601 200 601C166.7 601 133.3 601 100 601C66.7 601 33.3 601 16.7 601L0 601Z" fill="#1e2230"></path><path d="M0 472L16.7 476.5C33.3 481 66.7 490 100 488.3C133.3 486.7 166.7 474.3 200 468.2C233.3 462 266.7 462 300 463.2C333.3 464.3 366.7 466.7 400 473.7C433.3 480.7 466.7 492.3 500 498.2C533.3 504 566.7 504 600 506.3C633.3 508.7 666.7 513.3 700 508.2C733.3 503 766.7 488 800 483.7C833.3 479.3 866.7 485.7 883.3 488.8L900 492L900 601L883.3 601C866.7 601 833.3 601 800 601C766.7 601 733.3 601 700 601C666.7 601 633.3 601 600 601C566.7 601 533.3 601 500 601C466.7 601 433.3 601 400 601C366.7 601 333.3 601 300 601C266.7 601 233.3 601 200 601C166.7 601 133.3 601 100 601C66.7 601 33.3 601 16.7 601L0 601Z" fill="#181c28"></path><path d="M0 541L16.7 535.2C33.3 529.3 66.7 517.7 100 516.3C133.3 515 166.7 524 200 528.3C233.3 532.7 266.7 532.3 300 529.2C333.3 526 366.7 520 400 519.7C433.3 519.3 466.7 524.7 500 530.7C533.3 536.7 566.7 543.3 600 545.3C633.3 547.3 666.7 544.7 700 536.8C733.3 529 766.7 516 800 515.5C833.3 515 866.7 527 883.3 533L900 539L900 601L883.3 601C866.7 601 833.3 601 800 601C766.7 601 733.3 601 700 601C666.7 601 633.3 601 600 601C566.7 601 533.3 601 500 601C466.7 601 433.3 601 400 601C366.7 601 333.3 601 300 601C266.7 601 233.3 601 200 601C166.7 601 133.3 601 100 601C66.7 601 33.3 601 16.7 601L0 601Z" fill="#14171f"></path><path d="M0 540L16.7 542.2C33.3 544.3 66.7 548.7 100 552.7C133.3 556.7 166.7 560.3 200 560C233.3 559.7 266.7 555.3 300 557.2C333.3 559 366.7 567 400 565C433.3 563 466.7 551 500 546C533.3 541 566.7 543 600 544.5C633.3 546 666.7 547 700 547C733.3 547 766.7 546 800 547.8C833.3 549.7 866.7 554.3 883.3 556.7L900 559L900 601L883.3 601C866.7 601 833.3 601 800 601C766.7 601 733.3 601 700 601C666.7 601 633.3 601 600 601C566.7 601 533.3 601 500 601C466.7 601 433.3 601 400 601C366.7 601 333.3 601 300 601C266.7 601 233.3 601 200 601C166.7 601 133.3 601 100 601C66.7 601 33.3 601 16.7 601L0 601Z" fill="#0e1117"></path></svg>