<svg id="visual" viewBox="0 0 900 600" width="900" height="600" xmlns="http://www.w3.org/2000/svg" xmlns:xlink="http://www.w3.org/1999/xlink" version="1.1"><rect x="0" y="0" width="900" height="600" fill="#1c1e21"></rect><path d="M0 203L90 203L90 185L180 185L180 199L270 199L270 190L360 190L360 180L450 180L450 179L540 179L540 200L630 200L630 194L720 194L720 202L810 202L810 189L900 189L900 182L900 0L900 0L810 0L810 0L720 0L720 0L630 0L630 0L540 0L540 0L450 0L450 0L360 0L360 0L270 0L270 0L180 0L180 0L90 0L90 0L0 0Z" fill="#2b2d42"></path><path d="M0 157L90 157L90 155L180 155L180 167L270 167L270 157L360 157L360 152L450 152L450 153L540 153L540 177L630 177L630 162L720 162L720 175L810 175L810 182L900 182L900 178L900 0L900 0L810 0L810 0L720 0L720 0L630 0L630 0L540 0L540 0L450 0L450 0L360 0L360 0L270 0L270 0L180 0L180 0L90 0L90 0L0 0Z" fill="#25283b"></path><path d="M0 131L90 131L90 141L180 141L180 149L270 149L270 128L360 128L360 131L450 131L450 140L540 140L540 130L630 130L630 134L720 134L720 135L810 135L810 121L900 121L900 121L900 0L900 0L810 0L810 0L720 0L720 0L630 0L630 0L540 0L540 0L450 0L450 0L360 0L360 0L270 0L270 0L180 0L180 0L90 0L90 0L0 0Z" fill="#202433"></path><path d="M0 104L90 104L90 99L180 99L180 103L270 103L270 116L360 116L360 116L450 116L450 112L540 112L540 123L630 123L630 102L720 102L720 119L810 119L810 95L900 95L900 112L900 0L900 0L810 0L810 0L720 0L720 0L630 0L630 0L540 0L540 0L450 0L450 0L360 0L360 0L270 0L270 0L180 0L180 0L90 0L90 0L0 0Z" fill="#1b1f2c"></path><path d="M0 90L90 90L90 86L180 86L180 76L270 76L270 72L360 72L360 81L450 81L450 75L540 75L540 79L630 79L630 84L720 84L720 88L810 88L810 90L900 90L900 94L900 0L900 0L810 0L810 0L720 0L720 0L630 0L630 0L540 0L540 0L450 0L450 0L360 0L360 0L270 0L270 0L180 0L180 0L90 0L90 0L0 0Z" fill="#171b25"></path><path d="M0 59L90 59L90 45L180 45L180 60L270 60L270 62L360 62L360 53L450 53L450 57L540 57L540 69L630 69L630 69L720 69L720 66L810 66L810 64L900 64L900 60L900 0L900 0L810 0L810 0L720 0L720 0L630 0L630 0L540 0L540 0L450 0L450 0L360 0L360 0L270 0L270 0L180 0L180 0L90 0L90 0L0 0Z" fill="#13161e"></path><path d="M0 24L90 24L90 30L180 30L180 23L270 23L270 29L360 29L360 32L450 32L450 26L540 26L540 20L630 20L630 32L720 32L720 18L810 18L810 35L900 35L900 30L900 0L900 0L810 0L810 0L720 0L720 0L630 0L630 0L540 0L540 0L450 0L450 0L360 0L360 0L270 0L270 0L180 0L180 0L90 0L90 0L0 0Z" fill="#0e1117"></path></svg>