<svg id="visual" viewBox="0 0 900 600" width="900" height="600" xmlns="http://www.w3.org/2000/svg" xmlns:xlink="http://www.w3.org/1999/xlink" version="1.1"><path d="M0 25L13.7 30C27.3 35 54.7 45 82 51C109.3 57 136.7 59 163.8 54C191 49 218 37 245.2 36C272.3 35 299.7 45 327 48C354.3 51 381.7 47 409 42C436.3 37 463.7 31 491 32C518.3 33 545.7 41 573 47C600.3 53 627.7 57 654.8 56C682 55 709 49 736.2 49C763.3 49 790.7 55 818 52C845.3 49 872.7 37 886.3 31L900 25L900 0L886.3 0C872.7 0 845.3 0 818 0C790.7 0 763.3 0 736.2 0C709 0 682 0 654.8 0C627.7 0 600.3 0 573 0C545.7 0 518.3 0 491 0C463.7 0 436.3 0 409 0C381.7 0 354.3 0 327 0C299.7 0 272.3 0 245.2 0C218 0 191 0 163.8 0C136.7 0 109.3 0 82 0C54.7 0 27.3 0 13.7 0L0 0Z" fill="#1c1e21"></path><path d="M0 121L13.7 131C27.3 141 54.7 161 82 165C109.3 169 136.7 157 163.8 179C191 201 218 257 245.2 259C272.3 261 299.7 209 327 182C354.3 155 381.7 153 409 163C436.3 173 463.7 195 491 196C518.3 197 545.7 177 573 176C600.3 175 627.7 193 654.8 198C682 203 709 195 736.2 181C763.3 167 790.7 147 818 140C845.3 133 872.7 139 886.3 142L900 145L900 23L886.3 29C872.7 35 845.3 47 818 50C790.7 53 763.3 47 736.2 47C709 47 682 53 654.8 54C627.7 55 600.3 51 573 45C545.7 39 518.3 31 491 30C463.7 29 436.3 35 409 40C381.7 45 354.3 49 327 46C299.7 43 272.3 33 245.2 34C218 35 191 47 163.8 52C136.7 57 109.3 55 82 49C54.7 43 27.3 33 13.7 28L0 23Z" fill="#1d2025"></path><path d="M0 175L13.7 185C27.3 195 54.7 215 82 215C109.3 215 136.7 195 163.8 213C191 231 218 287 245.2 287C272.3 287 299.7 231 327 206C354.3 181 381.7 187 409 199C436.3 211 463.7 229 491 228C518.3 227 545.7 207 573 208C600.3 209 627.7 231 654.8 233C682 235 709 217 736.2 205C763.3 193 790.7 187 818 181C845.3 175 872.7 169 886.3 166L900 163L900 143L886.3 140C872.7 137 845.3 131 818 138C790.7 145 763.3 165 736.2 179C709 193 682 201 654.8 196C627.7 191 600.3 173 573 174C545.7 175 518.3 195 491 194C463.7 193 436.3 171 409 161C381.7 151 354.3 153 327 180C299.7 207 272.3 259 245.2 257C218 255 191 199 163.8 177C136.7 155 109.3 167 82 163C54.7 159 27.3 139 13.7 129L0 119Z" fill="#1e2229"></path><path d="M0 397L13.7 382C27.3 367 54.7 337 82 329C109.3 321 136.7 335 163.8 354C191 373 218 397 245.2 396C272.3 395 299.7 369 327 357C354.3 345 381.7 347 409 338C436.3 329 463.7 309 491 298C518.3 287 545.7 285 573 300C600.3 315 627.7 347 654.8 360C682 373 709 367 736.2 356C763.3 345 790.7 329 818 332C845.3 335 872.7 357 886.3 368L900 379L900 161L886.3 164C872.7 167 845.3 173 818 179C790.7 185 763.3 191 736.2 203C709 215 682 233 654.8 231C627.7 229 600.3 207 573 206C545.7 205 518.3 225 491 226C463.7 227 436.3 209 409 197C381.7 185 354.3 179 327 204C299.7 229 272.3 285 245.2 285C218 285 191 229 163.8 211C136.7 193 109.3 213 82 213C54.7 213 27.3 193 13.7 183L0 173Z" fill="#1f242e"></path><path d="M0 445L13.7 427C27.3 409 54.7 373 82 366C109.3 359 136.7 381 163.8 397C191 413 218 423 245.2 417C272.3 411 299.7 389 327 378C354.3 367 381.7 367 409 360C436.3 353 463.7 339 491 332C518.3 325 545.7 325 573 336C600.3 347 627.7 369 654.8 385C682 401 709 411 736.2 405C763.3 399 790.7 377 818 375C845.3 373 872.7 391 886.3 400L900 409L900 377L886.3 366C872.7 355 845.3 333 818 330C790.7 327 763.3 343 736.2 354C709 365 682 371 654.8 358C627.7 345 600.3 313 573 298C545.7 283 518.3 285 491 296C463.7 307 436.3 327 409 336C381.7 345 354.3 343 327 355C299.7 367 272.3 393 245.2 394C218 395 191 371 163.8 352C136.7 333 109.3 319 82 327C54.7 335 27.3 365 13.7 380L0 395Z" fill="#212632"></path><path d="M0 493L13.7 486C27.3 479 54.7 465 82 458C109.3 451 136.7 451 163.8 454C191 457 218 463 245.2 465C272.3 467 299.7 465 327 457C354.3 449 381.7 435 409 426C436.3 417 463.7 413 491 412C518.3 411 545.7 413 573 426C600.3 439 627.7 463 654.8 478C682 493 709 499 736.2 495C763.3 491 790.7 477 818 469C845.3 461 872.7 459 886.3 458L900 457L900 407L886.3 398C872.7 389 845.3 371 818 373C790.7 375 763.3 397 736.2 403C709 409 682 399 654.8 383C627.7 367 600.3 345 573 334C545.7 323 518.3 323 491 330C463.7 337 436.3 351 409 358C381.7 365 354.3 365 327 376C299.7 387 272.3 409 245.2 415C218 421 191 411 163.8 395C136.7 379 109.3 357 82 364C54.7 371 27.3 407 13.7 425L0 443Z" fill="#232836"></path><path d="M0 523L13.7 519C27.3 515 54.7 507 82 501C109.3 495 136.7 491 163.8 491C191 491 218 495 245.2 499C272.3 503 299.7 507 327 503C354.3 499 381.7 487 409 480C436.3 473 463.7 471 491 469C518.3 467 545.7 465 573 479C600.3 493 627.7 523 654.8 536C682 549 709 545 736.2 536C763.3 527 790.7 513 818 508C845.3 503 872.7 507 886.3 509L900 511L900 455L886.3 456C872.7 457 845.3 459 818 467C790.7 475 763.3 489 736.2 493C709 497 682 491 654.8 476C627.7 461 600.3 437 573 424C545.7 411 518.3 409 491 410C463.7 411 436.3 415 409 424C381.7 433 354.3 447 327 455C299.7 463 272.3 465 245.2 463C218 461 191 455 163.8 452C136.7 449 109.3 449 82 456C54.7 463 27.3 477 13.7 484L0 491Z" fill="#252a3a"></path><path d="M0 577L13.7 569C27.3 561 54.7 545 82 534C109.3 523 136.7 517 163.8 518C191 519 218 527 245.2 531C272.3 535 299.7 535 327 535C354.3 535 381.7 535 409 532C436.3 529 463.7 523 491 518C518.3 513 545.7 509 573 519C600.3 529 627.7 553 654.8 564C682 575 709 573 736.2 565C763.3 557 790.7 543 818 538C845.3 533 872.7 537 886.3 539L900 541L900 509L886.3 507C872.7 505 845.3 501 818 506C790.7 511 763.3 525 736.2 534C709 543 682 547 654.8 534C627.7 521 600.3 491 573 477C545.7 463 518.3 465 491 467C463.7 469 436.3 471 409 478C381.7 485 354.3 497 327 501C299.7 505 272.3 501 245.2 497C218 493 191 489 163.8 489C136.7 489 109.3 493 82 499C54.7 505 27.3 513 13.7 517L0 521Z" fill="#282b3e"></path><path d="M0 601L13.7 601C27.3 601 54.7 601 82 601C109.3 601 136.7 601 163.8 601C191 601 218 601 245.2 601C272.3 601 299.7 601 327 601C354.3 601 381.7 601 409 601C436.3 601 463.7 601 491 601C518.3 601 545.7 601 573 601C600.3 601 627.7 601 654.8 601C682 601 709 601 736.2 601C763.3 601 790.7 601 818 601C845.3 601 872.7 601 886.3 601L900 601L900 539L886.3 537C872.7 535 845.3 531 818 536C790.7 541 763.3 555 736.2 563C709 571 682 573 654.8 562C627.7 551 600.3 527 573 517C545.7 507 518.3 511 491 516C463.7 521 436.3 527 409 530C381.7 533 354.3 533 327 533C299.7 533 272.3 533 245.2 529C218 525 191 517 163.8 516C136.7 515 109.3 521 82 532C54.7 543 27.3 559 13.7 567L0 575Z" fill="#2b2d42"></path></svg>