<svg id="visual" viewBox="0 0 900 675" width="900" height="675" xmlns="http://www.w3.org/2000/svg" xmlns:xlink="http://www.w3.org/1999/xlink" version="1.1"><path d="M0 102L60 62L120 69L180 96L240 48L300 82L360 75L420 82L480 102L540 82L600 35L660 35L720 48L780 48L840 69L900 69L900 0L840 0L780 0L720 0L660 0L600 0L540 0L480 0L420 0L360 0L300 0L240 0L180 0L120 0L60 0L0 0Z" fill="#1c1e21"></path><path d="M0 318L60 204L120 244L180 190L240 312L300 332L360 271L420 258L480 204L540 359L600 224L660 183L720 312L780 305L840 163L900 217L900 67L840 67L780 46L720 46L660 33L600 33L540 80L480 100L420 80L360 73L300 80L240 46L180 94L120 67L60 60L0 100Z" fill="#1e2128"></path><path d="M0 359L60 258L120 312L180 264L240 386L300 366L360 332L420 291L480 285L540 420L600 318L660 271L720 379L780 386L840 237L900 305L900 215L840 161L780 303L720 310L660 181L600 222L540 357L480 202L420 256L360 269L300 330L240 310L180 188L120 242L60 202L0 316Z" fill="#20242f"></path><path d="M0 494L60 501L120 514L180 487L240 487L300 473L360 460L420 487L480 473L540 548L600 453L660 521L720 480L780 561L840 487L900 548L900 303L840 235L780 384L720 377L660 269L600 316L540 418L480 283L420 289L360 330L300 364L240 384L180 262L120 310L60 256L0 357Z" fill="#232735"></path><path d="M0 575L60 615L120 636L180 588L240 629L300 595L360 609L420 622L480 609L540 622L600 575L660 588L720 609L780 622L840 595L900 602L900 546L840 485L780 559L720 478L660 519L600 451L540 546L480 471L420 485L360 458L300 471L240 485L180 485L120 512L60 499L0 492Z" fill="#262a3c"></path><path d="M0 676L60 676L120 676L180 676L240 676L300 676L360 676L420 676L480 676L540 676L600 676L660 676L720 676L780 676L840 676L900 676L900 600L840 593L780 620L720 607L660 586L600 573L540 620L480 607L420 620L360 607L300 593L240 627L180 586L120 634L60 613L0 573Z" fill="#2b2d42"></path></svg>