<svg id="visual" viewBox="0 0 900 675" width="900" height="675" xmlns="http://www.w3.org/2000/svg" xmlns:xlink="http://www.w3.org/1999/xlink" version="1.1"><rect x="0" y="0" width="900" height="675" fill="#1c1e21"></rect><defs><linearGradient id="grad1_0" x1="25%" y1="0%" x2="100%" y2="100%"><stop offset="23.333333333333336%" stop-color="#2b2d42" stop-opacity="1"></stop><stop offset="76.66666666666666%" stop-color="#2b2d42" stop-opacity="1"></stop></linearGradient></defs><defs><linearGradient id="grad1_1" x1="25%" y1="0%" x2="100%" y2="100%"><stop offset="23.333333333333336%" stop-color="#2b2d42" stop-opacity="1"></stop><stop offset="76.66666666666666%" stop-color="#242837" stop-opacity="1"></stop></linearGradient></defs><defs><linearGradient id="grad1_2" x1="25%" y1="0%" x2="100%" y2="100%"><stop offset="23.333333333333336%" stop-color="#1f232c" stop-opacity="1"></stop><stop offset="76.66666666666666%" stop-color="#242837" stop-opacity="1"></stop></linearGradient></defs><defs><linearGradient id="grad1_3" x1="25%" y1="0%" x2="100%" y2="100%"><stop offset="23.333333333333336%" stop-color="#1f232c" stop-opacity="1"></stop><stop offset="76.66666666666666%" stop-color="#1c1e21" stop-opacity="1"></stop></linearGradient></defs><defs><linearGradient id="grad2_0" x1="0%" y1="0%" x2="75%" y2="100%"><stop offset="23.333333333333336%" stop-color="#2b2d42" stop-opacity="1"></stop><stop offset="76.66666666666666%" stop-color="#2b2d42" stop-opacity="1"></stop></linearGradient></defs><defs><linearGradient id="grad2_1" x1="0%" y1="0%" x2="75%" y2="100%"><stop offset="23.333333333333336%" stop-color="#242837" stop-opacity="1"></stop><stop offset="76.66666666666666%" stop-color="#2b2d42" stop-opacity="1"></stop></linearGradient></defs><defs><linearGradient id="grad2_2" x1="0%" y1="0%" x2="75%" y2="100%"><stop offset="23.333333333333336%" stop-color="#242837" stop-opacity="1"></stop><stop offset="76.66666666666666%" stop-color="#1f232c" stop-opacity="1"></stop></linearGradient></defs><defs><linearGradient id="grad2_3" x1="0%" y1="0%" x2="75%" y2="100%"><stop offset="23.333333333333336%" stop-color="#1c1e21" stop-opacity="1"></stop><stop offset="76.66666666666666%" stop-color="#1f232c" stop-opacity="1"></stop></linearGradient></defs><g transform="translate(900, 0)"><path d="M0 506.3C-42.1 493 -84.3 479.8 -125 466.5C-165.7 453.3 -205.1 440 -244 422.6C-282.9 405.3 -321.4 383.9 -355.7 355.7C-389.9 327.5 -419.9 292.6 -438.4 253.1C-456.9 213.7 -463.9 169.8 -473.3 126.8C-482.7 83.9 -494.5 41.9 -506.2 0L0 0Z" fill="#1d2126"></path><path d="M0 379.7C-31.6 369.8 -63.2 359.9 -93.8 349.9C-124.3 340 -153.8 330 -183 317C-212.2 303.9 -241.1 287.9 -266.8 266.8C-292.4 245.6 -314.9 219.4 -328.8 189.8C-342.7 160.3 -347.9 127.3 -355 95.1C-362 62.9 -370.9 31.5 -379.7 0L0 0Z" fill="#212632"></path><path d="M0 253.1C-21.1 246.5 -42.1 239.9 -62.5 233.3C-82.9 226.6 -102.5 220 -122 211.3C-141.5 202.6 -160.7 191.9 -177.8 177.8C-195 163.7 -210 146.3 -219.2 126.6C-228.5 106.8 -232 84.9 -236.7 63.4C-241.3 41.9 -247.2 21 -253.1 0L0 0Z" fill="#272b3d"></path><path d="M0 126.6C-10.5 123.3 -21.1 120 -31.3 116.6C-41.4 113.3 -51.3 110 -61 105.7C-70.7 101.3 -80.4 96 -88.9 88.9C-97.5 81.9 -105 73.1 -109.6 63.3C-114.2 53.4 -116 42.4 -118.3 31.7C-120.7 21 -123.6 10.5 -126.6 0L0 0Z" fill="#2b2d42"></path></g><g transform="translate(0, 675)"><path d="M0 -506.2C43.4 -497 86.9 -487.7 126.6 -472.3C166.3 -456.9 202.2 -435.4 240 -415.7C277.8 -396 317.3 -378.2 352.1 -352.1C387 -326 417.1 -291.6 438.4 -253.1C459.7 -214.6 472.2 -172 482 -129.2C491.8 -86.3 499 -43.1 506.3 0L0 0Z" fill="#1d2126"></path><path d="M0 -379.7C32.6 -372.7 65.1 -365.8 94.9 -354.3C124.7 -342.7 151.7 -326.5 180 -311.8C208.3 -297 238 -283.7 264.1 -264.1C290.2 -244.5 312.8 -218.7 328.8 -189.8C344.8 -161 354.1 -129 361.5 -96.9C368.9 -64.7 374.3 -32.4 379.7 0L0 0Z" fill="#212632"></path><path d="M0 -253.1C21.7 -248.5 43.4 -243.9 63.3 -236.2C83.1 -228.5 101.1 -217.7 120 -207.8C138.9 -198 158.6 -189.1 176.1 -176.1C193.5 -163 208.6 -145.8 219.2 -126.6C229.9 -107.3 236.1 -86 241 -64.6C245.9 -43.1 249.5 -21.6 253.1 0L0 0Z" fill="#272b3d"></path><path d="M0 -126.6C10.9 -124.2 21.7 -121.9 31.6 -118.1C41.6 -114.2 50.6 -108.8 60 -103.9C69.4 -99 79.3 -94.6 88 -88C96.7 -81.5 104.3 -72.9 109.6 -63.3C114.9 -53.7 118 -43 120.5 -32.3C123 -21.6 124.8 -10.8 126.6 0L0 0Z" fill="#2b2d42"></path></g></svg>