<svg id="visual" viewBox="0 0 900 675" width="900" height="675" xmlns="http://www.w3.org/2000/svg" xmlns:xlink="http://www.w3.org/1999/xlink" version="1.1"><path d="M0 48L13.7 47C27.3 46 54.7 44 82 43C109.3 42 136.7 42 163.8 45.3C191 48.7 218 55.3 245.2 55.3C272.3 55.3 299.7 48.7 327 52C354.3 55.3 381.7 68.7 409 72C436.3 75.3 463.7 68.7 491 63C518.3 57.3 545.7 52.7 573 50.3C600.3 48 627.7 48 654.8 44.7C682 41.3 709 34.7 736.2 31.3C763.3 28 790.7 28 818 35.8C845.3 43.7 872.7 59.3 886.3 67.2L900 75L900 0L886.3 0C872.7 0 845.3 0 818 0C790.7 0 763.3 0 736.2 0C709 0 682 0 654.8 0C627.7 0 600.3 0 573 0C545.7 0 518.3 0 491 0C463.7 0 436.3 0 409 0C381.7 0 354.3 0 327 0C299.7 0 272.3 0 245.2 0C218 0 191 0 163.8 0C136.7 0 109.3 0 82 0C54.7 0 27.3 0 13.7 0L0 0Z" fill="#2b2d42"></path><path d="M0 231L13.7 228.7C27.3 226.3 54.7 221.7 82 210.3C109.3 199 136.7 181 163.8 176.5C191 172 218 181 245.2 185.5C272.3 190 299.7 190 327 197.8C354.3 205.7 381.7 221.3 409 234.8C436.3 248.3 463.7 259.7 491 259.7C518.3 259.7 545.7 248.3 573 247.2C600.3 246 627.7 255 654.8 257.3C682 259.7 709 255.3 736.2 256.5C763.3 257.7 790.7 264.3 818 248.5C845.3 232.7 872.7 194.3 886.3 175.2L900 156L900 73L886.3 65.2C872.7 57.3 845.3 41.7 818 33.8C790.7 26 763.3 26 736.2 29.3C709 32.7 682 39.3 654.8 42.7C627.7 46 600.3 46 573 48.3C545.7 50.7 518.3 55.3 491 61C463.7 66.7 436.3 73.3 409 70C381.7 66.7 354.3 53.3 327 50C299.7 46.7 272.3 53.3 245.2 53.3C218 53.3 191 46.7 163.8 43.3C136.7 40 109.3 40 82 41C54.7 42 27.3 44 13.7 45L0 46Z" fill="#232837"></path><path d="M0 291L13.7 285.5C27.3 280 54.7 269 82 260C109.3 251 136.7 244 163.8 238.3C191 232.7 218 228.3 245.2 228.3C272.3 228.3 299.7 232.7 327 238.3C354.3 244 381.7 251 409 266.8C436.3 282.7 463.7 307.3 491 315.2C518.3 323 545.7 314 573 312.8C600.3 311.7 627.7 318.3 654.8 320.5C682 322.7 709 320.3 736.2 322.7C763.3 325 790.7 332 818 310.7C845.3 289.3 872.7 239.7 886.3 214.8L900 190L900 154L886.3 173.2C872.7 192.3 845.3 230.7 818 246.5C790.7 262.3 763.3 255.7 736.2 254.5C709 253.3 682 257.7 654.8 255.3C627.7 253 600.3 244 573 245.2C545.7 246.3 518.3 257.7 491 257.7C463.7 257.7 436.3 246.3 409 232.8C381.7 219.3 354.3 203.7 327 195.8C299.7 188 272.3 188 245.2 183.5C218 179 191 170 163.8 174.5C136.7 179 109.3 197 82 208.3C54.7 219.7 27.3 224.3 13.7 226.7L0 229Z" fill="#1e232b"></path><path d="M0 359L13.7 347.7C27.3 336.3 54.7 313.7 82 301.3C109.3 289 136.7 287 163.8 289.3C191 291.7 218 298.3 245.2 305C272.3 311.7 299.7 318.3 327 317.2C354.3 316 381.7 307 409 323.8C436.3 340.7 463.7 383.3 491 390.2C518.3 397 545.7 368 573 365.8C600.3 363.7 627.7 388.3 654.8 390.5C682 392.7 709 372.3 736.2 374.5C763.3 376.7 790.7 401.3 818 381.2C845.3 361 872.7 296 886.3 263.5L900 231L900 188L886.3 212.8C872.7 237.7 845.3 287.3 818 308.7C790.7 330 763.3 323 736.2 320.7C709 318.3 682 320.7 654.8 318.5C627.7 316.3 600.3 309.7 573 310.8C545.7 312 518.3 321 491 313.2C463.7 305.3 436.3 280.7 409 264.8C381.7 249 354.3 242 327 236.3C299.7 230.7 272.3 226.3 245.2 226.3C218 226.3 191 230.7 163.8 236.3C136.7 242 109.3 249 82 258C54.7 267 27.3 278 13.7 283.5L0 289Z" fill="#1c1e21"></path><path d="M0 460L13.7 453.3C27.3 446.7 54.7 433.3 82 409.7C109.3 386 136.7 352 163.8 352C191 352 218 386 245.2 400.7C272.3 415.3 299.7 410.7 327 400.5C354.3 390.3 381.7 374.7 409 382.5C436.3 390.3 463.7 421.7 491 430.7C518.3 439.7 545.7 426.3 573 430.8C600.3 435.3 627.7 457.7 654.8 459.8C682 462 709 444 736.2 442.8C763.3 441.7 790.7 457.3 818 433.8C845.3 410.3 872.7 347.7 886.3 316.3L900 285L900 229L886.3 261.5C872.7 294 845.3 359 818 379.2C790.7 399.3 763.3 374.7 736.2 372.5C709 370.3 682 390.7 654.8 388.5C627.7 386.3 600.3 361.7 573 363.8C545.7 366 518.3 395 491 388.2C463.7 381.3 436.3 338.7 409 321.8C381.7 305 354.3 314 327 315.2C299.7 316.3 272.3 309.7 245.2 303C218 296.3 191 289.7 163.8 287.3C136.7 285 109.3 287 82 299.3C54.7 311.7 27.3 334.3 13.7 345.7L0 357Z" fill="#1c1e21"></path><path d="M0 507L13.7 501.3C27.3 495.7 54.7 484.3 82 463C109.3 441.7 136.7 410.3 163.8 403.7C191 397 218 415 245.2 429.7C272.3 444.3 299.7 455.7 327 454.5C354.3 453.3 381.7 439.7 409 441.8C436.3 444 463.7 462 491 464.3C518.3 466.7 545.7 453.3 573 464.7C600.3 476 627.7 512 654.8 517.5C682 523 709 498 736.2 490.2C763.3 482.3 790.7 491.7 818 467C845.3 442.3 872.7 383.7 886.3 354.3L900 325L900 283L886.3 314.3C872.7 345.7 845.3 408.3 818 431.8C790.7 455.3 763.3 439.7 736.2 440.8C709 442 682 460 654.8 457.8C627.7 455.7 600.3 433.3 573 428.8C545.7 424.3 518.3 437.7 491 428.7C463.7 419.7 436.3 388.3 409 380.5C381.7 372.7 354.3 388.3 327 398.5C299.7 408.7 272.3 413.3 245.2 398.7C218 384 191 350 163.8 350C136.7 350 109.3 384 82 407.7C54.7 431.3 27.3 444.7 13.7 451.3L0 458Z" fill="#1e232b"></path><path d="M0 595L13.7 584.8C27.3 574.7 54.7 554.3 82 545.3C109.3 536.3 136.7 538.7 163.8 546.7C191 554.7 218 568.3 245.2 584.2C272.3 600 299.7 618 327 621.3C354.3 624.7 381.7 613.3 409 609.8C436.3 606.3 463.7 610.7 491 596C518.3 581.3 545.7 547.7 573 547.7C600.3 547.7 627.7 581.3 654.8 598.2C682 615 709 615 736.2 612.8C763.3 610.7 790.7 606.3 818 597.3C845.3 588.3 872.7 574.7 886.3 567.8L900 561L900 323L886.3 352.3C872.7 381.7 845.3 440.3 818 465C790.7 489.7 763.3 480.3 736.2 488.2C709 496 682 521 654.8 515.5C627.7 510 600.3 474 573 462.7C545.7 451.3 518.3 464.7 491 462.3C463.7 460 436.3 442 409 439.8C381.7 437.7 354.3 451.3 327 452.5C299.7 453.7 272.3 442.3 245.2 427.7C218 413 191 395 163.8 401.7C136.7 408.3 109.3 439.7 82 461C54.7 482.3 27.3 493.7 13.7 499.3L0 505Z" fill="#232837"></path><path d="M0 676L13.7 676C27.3 676 54.7 676 82 676C109.3 676 136.7 676 163.8 676C191 676 218 676 245.2 676C272.3 676 299.7 676 327 676C354.3 676 381.7 676 409 676C436.3 676 463.7 676 491 676C518.3 676 545.7 676 573 676C600.3 676 627.7 676 654.8 676C682 676 709 676 736.2 676C763.3 676 790.7 676 818 676C845.3 676 872.7 676 886.3 676L900 676L900 559L886.3 565.8C872.7 572.7 845.3 586.3 818 595.3C790.7 604.3 763.3 608.7 736.2 610.8C709 613 682 613 654.8 596.2C627.7 579.3 600.3 545.7 573 545.7C545.7 545.7 518.3 579.3 491 594C463.7 608.7 436.3 604.3 409 607.8C381.7 611.3 354.3 622.7 327 619.3C299.7 616 272.3 598 245.2 582.2C218 566.3 191 552.7 163.8 544.7C136.7 536.7 109.3 534.3 82 543.3C54.7 552.3 27.3 572.7 13.7 582.8L0 593Z" fill="#2b2d42"></path></svg>